<svg xmlns="http://www.w3.org/2000/svg" viewBox="0 0 24 24" fill="#FF5722" width="18" height="18"><path d="M17.66 11.57c-.77-.77-1.9-1.08-2.85-1.07.1.95-.12 1.95-.82 2.65-.28.28-.68.49-1.08.6-.4.12-.83.14-1.24.04.09-.58.38-1.1.84-1.47.46-.38.74-.93.74-1.52 0-.6-.3-1.17-.82-1.47-.9-.52-2.1-.47-2.93.18-.84.66-1.24 1.76-1.02 2.79.03.1.06.2.1.3-.39-.24-.72-.57-.96-.97-.24-.4-.36-.88-.36-1.37 0-.74.27-1.45.77-2 .5-.55 1.18-.94 1.92-1.1.75-.15 1.54-.03 2.22.33a4.02 4.02 0 0 1 1.84 2.37c.75-.42 1.3-1.1 1.53-1.92.23-.83.12-1.72-.32-2.47-.45-.75-1.2-1.3-2.07-1.53-.88-.23-1.82-.12-2.6.3a8.03 8.03 0 0 0-3.6 4.75 8.03 8.03 0 0 0 2 7.78c1.55 1.55 3.65 2.42 5.85 2.42s4.3-.87 5.85-2.42c3.23-3.23 3.23-8.47 0-11.7z" /></svg>